<svg xmlns="http://www.w3.org/2000/svg" viewBox="0 0 160 90" preserveAspectRatio="xMidYMid slice"><style>
@keyframes tw{0%,100%{opacity:var(--o,.9)}50%{opacity:calc(var(--o,.9)*.2)}}
@keyframes draw{to{stroke-dashoffset:0}}
@keyframes pulse{0%,100%{opacity:.85;transform:scale(1)}50%{opacity:1;transform:scale(1.08)}}
@keyframes flick{0%,100%{opacity:.85}50%{opacity:.25}}
.tw{animation:tw var(--t,3s) ease-in-out var(--d,0s) infinite}
.dr{stroke-dasharray:1;stroke-dashoffset:1;animation:draw 2.4s cubic-bezier(0.22, 1, 0.36, 1) var(--d,0s) forwards}
@media (prefers-reduced-motion:reduce){.tw,.fl,.pu{animation:none!important}.dr{animation:none;stroke-dashoffset:0}}
</style><g fill="#F6F0E5"><circle cx="156.31" cy="62.91" r="0.11" opacity="0.21"/><circle cx="88.53" cy="65.68" r="0.07" opacity="0.53"/><circle cx="31.54" cy="33.12" r="0.09" opacity="0.73"/><circle cx="39.61" cy="79" r="0.07" opacity="0.41" class="tw" style="--o:0.41;--d:0.93s;--t:4.16s"/><circle cx="11.92" cy="82.16" r="0.14" opacity="0.58" class="tw" style="--o:0.58;--d:4.08s;--t:6.86s"/><circle cx="132.42" cy="3.6" r="0.07" opacity="0.64" class="tw" style="--o:0.64;--d:2.55s;--t:3.08s"/><circle cx="59.04" cy="38.4" r="0.16" opacity="0.26" class="tw" style="--o:0.26;--d:4.22s;--t:5.75s"/><circle cx="22.21" cy="12" r="0.12" opacity="0.43"/><circle cx="53.88" cy="3.93" r="0.2" opacity="0.33" class="tw" style="--o:0.33;--d:3.29s;--t:6.31s"/><circle cx="18.73" cy="47.69" r="0.19" opacity="0.66" class="tw" style="--o:0.66;--d:5.76s;--t:6.35s"/><circle cx="154.8" cy="49.37" r="0.06" opacity="0.62" class="tw" style="--o:0.62;--d:3.1s;--t:4.31s"/><circle cx="120.87" cy="87.92" r="0.16" opacity="0.71"/><circle cx="118.17" cy="49.65" r="0.08" opacity="0.5" class="tw" style="--o:0.5;--d:0.06s;--t:3.1s"/><circle cx="100.9" cy="1.3" r="0.14" opacity="0.86" class="tw" style="--o:0.86;--d:4.3s;--t:6.98s"/><circle cx="104" cy="72.44" r="0.17" opacity="0.39" class="tw" style="--o:0.39;--d:0.83s;--t:6.98s"/><circle cx="25.74" cy="35.65" r="0.1" opacity="0.55" class="tw" style="--o:0.55;--d:5.17s;--t:5.94s"/><circle cx="97.49" cy="66.28" r="0.16" opacity="0.66" class="tw" style="--o:0.66;--d:1.38s;--t:5.34s"/><circle cx="30.39" cy="49.94" r="0.12" opacity="0.76" class="tw" style="--o:0.76;--d:1.08s;--t:4s"/><circle cx="27.33" cy="0.29" r="0.06" opacity="0.51"/><circle cx="157.25" cy="5.41" r="0.08" opacity="0.28" class="tw" style="--o:0.28;--d:2.99s;--t:5.93s"/><circle cx="126.64" cy="63.97" r="0.15" opacity="0.46"/><circle cx="90.02" cy="26.34" r="0.15" opacity="0.76"/><circle cx="132.29" cy="74.46" r="0.13" opacity="0.26"/><circle cx="40.21" cy="32.53" r="0.15" opacity="0.45" class="tw" style="--o:0.45;--d:2.42s;--t:6.9s"/><circle cx="54.17" cy="48.33" r="0.12" opacity="0.59"/><circle cx="134.56" cy="44.61" r="0.13" opacity="0.6" class="tw" style="--o:0.6;--d:5.59s;--t:5.2s"/><circle cx="110.93" cy="35.17" r="0.17" opacity="0.66"/><circle cx="14.48" cy="61.51" r="0.22" opacity="0.47"/><circle cx="10.78" cy="64.83" r="0.22" opacity="0.42"/><circle cx="36.24" cy="88.09" r="0.09" opacity="0.78" class="tw" style="--o:0.78;--d:2.35s;--t:5.85s"/><circle cx="116.08" cy="55.94" r="0.1" opacity="0.73" class="tw" style="--o:0.73;--d:4.99s;--t:4.93s"/><circle cx="74.22" cy="50.36" r="0.17" opacity="0.3" class="tw" style="--o:0.3;--d:5.72s;--t:3.61s"/><circle cx="83.82" cy="35.35" r="0.23" opacity="0.27"/><circle cx="44.6" cy="44.38" r="0.2" opacity="0.57" class="tw" style="--o:0.57;--d:4.77s;--t:4.33s"/><circle cx="134.85" cy="0.24" r="0.09" opacity="0.84" class="tw" style="--o:0.84;--d:0.63s;--t:3.33s"/><circle cx="94.29" cy="23.6" r="0.19" opacity="0.84"/><circle cx="156.72" cy="7.41" r="0.07" opacity="0.24"/><circle cx="43.51" cy="44.78" r="0.07" opacity="0.75" class="tw" style="--o:0.75;--d:2.62s;--t:5.18s"/><circle cx="48.51" cy="62.27" r="0.07" opacity="0.32" class="tw" style="--o:0.32;--d:1.09s;--t:5.87s"/><circle cx="134.38" cy="57.99" r="0.07" opacity="0.83"/><circle cx="110.95" cy="23.2" r="0.07" opacity="0.27" class="tw" style="--o:0.27;--d:3.1s;--t:4.71s"/><circle cx="118.58" cy="15.34" r="0.07" opacity="0.75"/><circle cx="5.35" cy="84.62" r="0.16" opacity="0.82"/><circle cx="27.31" cy="46.63" r="0.07" opacity="0.6" class="tw" style="--o:0.6;--d:4.33s;--t:6.38s"/><circle cx="59.26" cy="5.02" r="0.12" opacity="0.25" class="tw" style="--o:0.25;--d:0.93s;--t:4.13s"/><circle cx="131.78" cy="77.94" r="0.18" opacity="0.44" class="tw" style="--o:0.44;--d:5.19s;--t:5.55s"/><circle cx="49.39" cy="36.3" r="0.11" opacity="0.69" class="tw" style="--o:0.69;--d:1.45s;--t:4.99s"/><circle cx="68.24" cy="64.01" r="0.1" opacity="0.62" class="tw" style="--o:0.62;--d:3.12s;--t:4.76s"/><circle cx="19.94" cy="49.85" r="0.14" opacity="0.47" class="tw" style="--o:0.47;--d:3.76s;--t:3.31s"/><circle cx="113.97" cy="46.07" r="0.11" opacity="0.49" class="tw" style="--o:0.49;--d:5.85s;--t:3.25s"/><circle cx="35.92" cy="44.3" r="0.1" opacity="0.73"/><circle cx="151.16" cy="14.98" r="0.08" opacity="0.9"/><circle cx="122" cy="19.44" r="0.06" opacity="0.23" class="tw" style="--o:0.23;--d:3.99s;--t:4.25s"/><circle cx="47.03" cy="49.6" r="0.11" opacity="0.58" class="tw" style="--o:0.58;--d:0.62s;--t:5.54s"/><circle cx="72.55" cy="60.48" r="0.19" opacity="0.28"/><circle cx="84.33" cy="67.74" r="0.14" opacity="0.6" class="tw" style="--o:0.6;--d:3.6s;--t:5.7s"/><circle cx="140.24" cy="77.34" r="0.15" opacity="0.73" class="tw" style="--o:0.73;--d:0.9s;--t:4.02s"/><circle cx="144.95" cy="3.4" r="0.15" opacity="0.9"/><circle cx="29.29" cy="29.45" r="0.16" opacity="0.78"/><circle cx="49.81" cy="84.45" r="0.06" opacity="0.43"/><circle cx="0.08" cy="64.29" r="0.06" opacity="0.38" class="tw" style="--o:0.38;--d:3.05s;--t:6.89s"/><circle cx="123.23" cy="24.74" r="0.11" opacity="0.63"/><circle cx="118.17" cy="34.21" r="0.09" opacity="0.74"/><circle cx="36.02" cy="68.61" r="0.07" opacity="0.24"/><circle cx="149.51" cy="79.93" r="0.15" opacity="0.27"/><circle cx="31.47" cy="18.65" r="0.1" opacity="0.8"/><circle cx="59.14" cy="0.81" r="0.06" opacity="0.31"/><circle cx="6.89" cy="39.47" r="0.21" opacity="0.5"/><circle cx="157.73" cy="86.55" r="0.12" opacity="0.58" class="tw" style="--o:0.58;--d:4.9s;--t:6.19s"/><circle cx="112.93" cy="28.88" r="0.11" opacity="0.86" class="tw" style="--o:0.86;--d:2.04s;--t:6.05s"/><circle cx="92.51" cy="21.59" r="0.13" opacity="0.24" class="tw" style="--o:0.24;--d:5.43s;--t:4.2s"/><circle cx="76.9" cy="3.95" r="0.06" opacity="0.21" class="tw" style="--o:0.21;--d:1.1s;--t:5.71s"/><circle cx="123.49" cy="70.29" r="0.16" opacity="0.71" class="tw" style="--o:0.71;--d:5.46s;--t:5.11s"/><circle cx="54.18" cy="81.88" r="0.15" opacity="0.86" class="tw" style="--o:0.86;--d:2.4s;--t:4.12s"/><circle cx="117.32" cy="31.02" r="0.19" opacity="0.55" class="tw" style="--o:0.55;--d:3.8s;--t:5.89s"/><circle cx="13.45" cy="71.15" r="0.1" opacity="0.63" class="tw" style="--o:0.63;--d:2.43s;--t:5.96s"/><circle cx="68.02" cy="84.94" r="0.09" opacity="0.74"/><circle cx="91.22" cy="42.31" r="0.11" opacity="0.66"/><circle cx="134.18" cy="8.9" r="0.1" opacity="0.67" class="tw" style="--o:0.67;--d:0.43s;--t:6.26s"/><circle cx="55.34" cy="72.9" r="0.07" opacity="0.42" class="tw" style="--o:0.42;--d:2.81s;--t:5.43s"/><circle cx="10.18" cy="56.26" r="0.08" opacity="0.27" class="tw" style="--o:0.27;--d:4.82s;--t:6.72s"/><circle cx="29.56" cy="52.94" r="0.08" opacity="0.67"/><circle cx="16.68" cy="43.05" r="0.2" opacity="0.5"/><circle cx="75.12" cy="31.76" r="0.07" opacity="0.66" class="tw" style="--o:0.66;--d:3.43s;--t:5.48s"/><circle cx="40.93" cy="6.43" r="0.14" opacity="0.83"/><circle cx="123.14" cy="85.84" r="0.15" opacity="0.85"/><circle cx="8.48" cy="21.81" r="0.09" opacity="0.79"/><circle cx="108.43" cy="36.96" r="0.15" opacity="0.46" class="tw" style="--o:0.46;--d:4.19s;--t:5.66s"/><circle cx="151.77" cy="74.46" r="0.1" opacity="0.4"/><circle cx="15.59" cy="4.97" r="0.11" opacity="0.63" class="tw" style="--o:0.63;--d:4.96s;--t:6.87s"/><circle cx="52.46" cy="33.58" r="0.07" opacity="0.75"/><circle cx="53.47" cy="47.86" r="0.1" opacity="0.34"/><circle cx="12.09" cy="83.33" r="0.19" opacity="0.86" class="tw" style="--o:0.86;--d:5.25s;--t:4.8s"/><circle cx="132.79" cy="30.59" r="0.07" opacity="0.75" class="tw" style="--o:0.75;--d:0.36s;--t:3.09s"/><circle cx="34.5" cy="38.74" r="0.11" opacity="0.75"/><circle cx="157.05" cy="28.84" r="0.09" opacity="0.7"/><circle cx="130.01" cy="3.98" r="0.24" opacity="0.55" class="tw" style="--o:0.55;--d:4.78s;--t:3.04s"/><circle cx="81.66" cy="5.19" r="0.09" opacity="0.52"/><circle cx="89.27" cy="79.81" r="0.15" opacity="0.29"/><circle cx="0.69" cy="3.23" r="0.16" opacity="0.85"/><circle cx="82" cy="63.9" r="0.13" opacity="0.81"/><circle cx="26.04" cy="12.75" r="0.12" opacity="0.25" class="tw" style="--o:0.25;--d:0.04s;--t:4s"/><circle cx="125.55" cy="79.32" r="0.12" opacity="0.89" class="tw" style="--o:0.89;--d:5.1s;--t:4.84s"/><circle cx="13.82" cy="74.33" r="0.06" opacity="0.74"/><circle cx="129.2" cy="1.66" r="0.1" opacity="0.35"/><circle cx="13.09" cy="3.79" r="0.1" opacity="0.59"/><circle cx="91.78" cy="24.83" r="0.1" opacity="0.39" class="tw" style="--o:0.39;--d:1.05s;--t:6.67s"/><circle cx="75.23" cy="59.54" r="0.23" opacity="0.41" class="tw" style="--o:0.41;--d:1.89s;--t:6.04s"/><circle cx="159.21" cy="71.62" r="0.11" opacity="0.61" class="tw" style="--o:0.61;--d:0.01s;--t:6.27s"/><circle cx="43.43" cy="53.36" r="0.09" opacity="0.82" class="tw" style="--o:0.82;--d:2.15s;--t:4.66s"/></g></svg>